# xmcd CD database file
#
# Track frame offsets:
#	150
#	15173
#	28070
#
# Disc length: 599 seconds
#
# Revision: 0
# Processed by: cddbd v1.5PL3 Copyright (c) Steve Scherf et al.
# Submitted via: CDex 1.50
#
DISCID=14025503
DTITLE=HARDCORE SUPERSTAR - Honey Tongue (EP)
DYEAR=2003
DGENRE=Hard Rock
TTITLE0=Honey Tongue
TTITLE1=You Know Where We All Belong
TTITLE2=Need No Invitation (DEMO)
EXTD=YEAR: 2003
EXTT0=
EXTT1=
EXTT2=
PLAYORDER=
